<svg xmlns="http://www.w3.org/2000/svg" viewBox="-1.5 0 46.93 40.28"><defs><style>.cls-1{fill:none;stroke:#4f596f;stroke-miterlimit:10;stroke-width:0.88px;}.cls-2{fill:#4f596f;}</style></defs><title>asset_Asset 14</title><g id="Layer_2" data-name="Layer 2"><g id="Assets"><path class="cls-1" d="M2.25,3.53a11.11,11.11,0,0,0,.53,2c.32.64.74,1.06,1.22,1.06"/><path class="cls-1" d="M6.91,3.53a4.91,4.91,0,0,0,.47,2c.27.64.74,1.06,1.17,1.06"/><path class="cls-1" d="M11.46,3.53a10.3,10.3,0,0,0,.47,2c.37.64.79,1.06,1.27,1.06"/><path class="cls-1" d="M16,3.53a11.11,11.11,0,0,0,.53,2c.32.64.74,1.06,1.22,1.06"/><path class="cls-1" d="M20.66,3.53a4.91,4.91,0,0,0,.47,2c.27.64.74,1.06,1.17,1.06"/><path class="cls-1" d="M24,4a5.56,5.56,0,0,0-.48-2.48A1.49,1.49,0,0,0,22.3.44c-.43,0-.9.42-1.17,1.06A5.57,5.57,0,0,0,20.66,4"/><path class="cls-1" d="M19.49,4A6.55,6.55,0,0,0,19,1.5C18.65.86,18.22.44,17.75.44s-.9.42-1.22,1.06A5.53,5.53,0,0,0,16,4"/><path class="cls-1" d="M15,4a5.66,5.66,0,0,0-.53-2.48C14.1.86,13.68.44,13.2.44s-.9.42-1.27,1.06A6.55,6.55,0,0,0,11.46,4"/><path class="cls-1" d="M10.29,4A5.71,5.71,0,0,0,9.82,1.5,1.5,1.5,0,0,0,8.55.44c-.43,0-.9.42-1.17,1.06A5.71,5.71,0,0,0,6.91,4"/><path class="cls-1" d="M5.74,4A6.55,6.55,0,0,0,5.27,1.5C4.9.86,4.48.44,4,.44S3.1.86,2.78,1.5A5.66,5.66,0,0,0,2.25,4"/><path class="cls-2" d="M25.52,4.32V28.9H.88V4.32H25.52m.88-.88H0V29.78H26.4V3.44Z"/><rect class="cls-1" x="2.57" y="14.15" width="2.96" height="2.96"/><rect class="cls-1" x="7.12" y="14.15" width="2.96" height="2.96"/><rect class="cls-1" x="11.67" y="14.15" width="2.96" height="2.96"/><rect class="cls-1" x="16.32" y="14.15" width="2.96" height="2.96"/><rect class="cls-1" x="20.87" y="14.15" width="2.96" height="2.96"/><rect class="cls-1" x="2.57" y="18.75" width="2.96" height="2.96"/><rect class="cls-1" x="7.12" y="18.75" width="2.96" height="2.96"/><rect class="cls-1" x="11.67" y="18.75" width="2.96" height="2.96"/><rect class="cls-1" x="16.32" y="18.75" width="2.96" height="2.96"/><rect class="cls-1" x="20.87" y="18.75" width="2.96" height="2.96"/><rect class="cls-1" x="2.57" y="23.3" width="2.96" height="2.96"/><rect class="cls-1" x="7.12" y="23.3" width="2.96" height="2.96"/><rect class="cls-1" x="11.67" y="23.3" width="2.96" height="2.96"/><rect class="cls-1" x="16.32" y="23.3" width="2.96" height="2.96"/><rect class="cls-1" x="20.87" y="23.3" width="2.96" height="2.96"/><line class="cls-1" x1="0.05" y1="10.35" x2="26.4" y2="10.35"/></g></g></svg>