<svg xmlns="http://www.w3.org/2000/svg" viewBox="0 0 46.93 40.28"><defs><style>.cls-1{fill:none;stroke:#4f596f;stroke-linecap:round;stroke-miterlimit:10;stroke-width:0.83px;}.cls-2{fill:#4f596f;}</style></defs><title>asset_Asset 8</title><g id="Layer_2" data-name="Layer 2"><g id="Assets"><circle class="cls-1" cx="14.98" cy="14.98" r="14.57"/><path class="cls-1" d="M13,17l-5.9-2.41a.15.15,0,0,1,0-.28L20.82,9.05a.21.21,0,0,1,.28.28L15.91,22.85a.21.21,0,0,1-.4,0l-2.35-5.74A.28.28,0,0,0,13,17Z"/><line class="cls-1" x1="15" y1="0.42" x2="15" y2="2.84"/><line class="cls-1" x1="0.59" y1="14.98" x2="3.01" y2="14.98"/><line class="cls-1" x1="15" y1="29.55" x2="15" y2="26.82"/><line class="cls-1" x1="29.41" y1="14.98" x2="26.98" y2="14.98"/><path class="cls-2" d="M14,16.59,15.62,21a.15.15,0,0,0,.28,0l3.84-9.88a.15.15,0,0,0-.24-.16L14,16.43A.14.14,0,0,0,14,16.59Z"/></g></g></svg>