<svg xmlns="http://www.w3.org/2000/svg" viewBox="0 0 331 181.69"><defs><style>.cls-1{fill:#fff;}</style></defs><title>Asset 55</title><g id="Layer_2" data-name="Layer 2"><g id="Assets"><polygon class="cls-1" points="59.17 50.05 100.5 36.27 59.17 22.37 59.17 0 121.98 25.02 121.98 47.27 59.17 72.29 59.17 50.05 59.17 50.05"/><polygon class="cls-1" points="130.89 47.27 130.89 25.02 193.7 0 193.7 22.24 152.37 36.15 193.7 49.92 193.7 72.29 130.89 47.27 130.89 47.27"/><polygon class="cls-1" points="202.61 50.05 243.93 36.27 202.61 22.37 202.61 0 265.42 25.02 265.42 47.27 202.61 72.29 202.61 50.05 202.61 50.05"/><polygon class="cls-1" points="0 102.56 14.51 102.56 14.51 133.57 34.92 133.57 34.92 145.97 0 145.97 0 102.56 0 102.56"/><polygon class="cls-1" points="38.08 102.56 75.1 102.56 75.1 114.47 52.34 114.47 52.34 118.87 73.55 118.87 73.55 129.35 52.34 129.35 52.34 134.07 75.41 134.07 75.41 145.97 38.08 145.97 38.08 102.56 38.08 102.56"/><path class="cls-1" d="M79.65,133.65v-.12c0-13,10.24-22.64,23.94-22.64a26.86,26.86,0,0,1,18.17,6.58l-8.12,9.8a14.59,14.59,0,0,0-9.61-3.79c-5.65,0-9.74,4.34-9.74,10.24v.12a9.9,9.9,0,0,0,10.36,10.36,9.6,9.6,0,0,0,5-1v-4.34h-7.45v-9.3h21v20.09A30,30,0,0,1,104,156.17c-13.52,0-24.38-9.06-24.38-22.52Z" transform="translate(-1.95 -9.26)"/><polygon class="cls-1" points="125.58 102.56 140.09 102.56 140.09 145.97 125.58 145.97 125.58 102.56 125.58 102.56"/><polygon class="cls-1" points="156.28 114.84 143.5 114.84 143.5 102.56 183.57 102.56 183.57 114.84 170.79 114.84 170.79 145.97 156.28 145.97 156.28 114.84 156.28 114.84"/><polygon class="cls-1" points="187.68 102.56 224.02 102.56 224.02 114.97 202.19 114.97 202.19 120.48 222.47 120.48 222.47 131.77 202.19 131.77 202.19 145.97 187.68 145.97 187.68 102.56 187.68 102.56"/><polygon class="cls-1" points="227.55 102.56 242.07 102.56 242.07 145.97 227.55 145.97 227.55 102.56 227.55 102.56"/><path class="cls-1" d="M245.88,148.72l7.75-9.24a24.87,24.87,0,0,0,15.2,5.09c2.6,0,3.72-.68,3.72-1.86v-.13c0-1.24-1.37-1.92-6-2.85-9.74-2-18.29-4.77-18.29-13.95v-.13c0-8.24,6.45-14.63,18.41-14.63,8.38,0,14.58,2,19.6,6l-7.07,9.8a22.73,22.73,0,0,0-13-4.28c-2.17,0-3.16.74-3.16,1.8v.12c0,1.18,1.17,1.93,5.76,2.79,11.1,2,18.55,5.28,18.55,14v.12c0,9.12-7.51,14.7-19.17,14.7-8.8,0-16.74-2.48-22.26-7.32Z" transform="translate(-1.95 -9.26)"/><polygon class="cls-1" points="288.71 102.56 303.22 102.56 303.22 117.88 316.49 117.88 316.49 102.56 331 102.56 331 145.97 316.49 145.97 316.49 130.41 303.22 130.41 303.22 145.97 288.71 145.97 288.71 102.56 288.71 102.56"/><polygon class="cls-1" points="42.83 162.56 46.6 162.56 50.66 173.49 54.72 162.56 58.4 162.56 52.12 178.19 49.11 178.19 42.83 162.56 42.83 162.56"/><path class="cls-1" d="M68.64,180.47a2.55,2.55,0,0,0-2.51-2.53,2.64,2.64,0,0,0-2.57,2.53Zm-8.39,1v-.05a5.92,5.92,0,0,1,5.88-6.18c4,0,5.79,3.08,5.79,6.45,0,.27,0,.58,0,.89H63.6a2.76,2.76,0,0,0,2.91,2.32,3.87,3.87,0,0,0,2.88-1.22l1.93,1.71a6.28,6.28,0,0,1-11.07-3.92Z" transform="translate(-1.95 -9.26)"/><path class="cls-1" d="M74.42,175.46h3.37v2.39a3.67,3.67,0,0,1,3.79-2.61v3.52H81.4c-2.24,0-3.61,1.35-3.61,4.19v4.39H74.42V175.46Z" transform="translate(-1.95 -9.26)"/><path class="cls-1" d="M83.84,175.46h3.37v11.88H83.84V175.46Zm-.09-4.3H87.3v3H83.75v-3Z" transform="translate(-1.95 -9.26)"/><path class="cls-1" d="M91,178.34h-1.4v-2.77H91v-.75a4,4,0,0,1,1-2.89,3.7,3.7,0,0,1,2.73-.93,7.4,7.4,0,0,1,2.39.34v2.79a4.21,4.21,0,0,0-1.53-.29c-.77,0-1.22.4-1.22,1.29v.46H97v2.75H94.33v9H91v-9Z" transform="translate(-1.95 -9.26)"/><path class="cls-1" d="M98.69,190.14l1.13-2.44a3.15,3.15,0,0,0,1.45.46,1.12,1.12,0,0,0,1.17-.77l-4.66-11.93h3.57l2.71,8.09,2.59-8.09h3.51l-4.57,12.17c-.91,2.42-1.89,3.33-3.9,3.33a5.62,5.62,0,0,1-3-.82Z" transform="translate(-1.95 -9.26)"/><path class="cls-1" d="M126.54,184.35c1.5,0,2.41-.53,2.41-1.69v0c0-1-.77-1.68-2.52-1.68h-4v3.41Zm-.91-6.25c1.51,0,2.46-.49,2.46-1.64v-.05c0-1-.8-1.59-2.24-1.59h-3.37v3.28Zm-6.48-6.28h7.21a5.61,5.61,0,0,1,4.06,1.38,3.55,3.55,0,0,1,1.06,2.64v0a3.61,3.61,0,0,1-2,3.35c1.8.69,2.9,1.73,2.9,3.81v.05c0,2.83-2.3,4.25-5.8,4.25h-7.39V171.82Z" transform="translate(-1.95 -9.26)"/><path class="cls-1" d="M142.61,180.47a2.55,2.55,0,0,0-2.51-2.53c-1.39,0-2.3,1-2.57,2.53Zm-8.38,1v-.05a5.91,5.91,0,0,1,5.87-6.18c4,0,5.79,3.08,5.79,6.45,0,.27,0,.58,0,.89h-8.26a2.74,2.74,0,0,0,2.9,2.32,3.87,3.87,0,0,0,2.88-1.22l1.93,1.71a6.27,6.27,0,0,1-11.06-3.92Z" transform="translate(-1.95 -9.26)"/><path class="cls-1" d="M149,178.34h-1.4v-2.77H149v-.75a4,4,0,0,1,.95-2.89,3.7,3.7,0,0,1,2.73-.93,7.4,7.4,0,0,1,2.39.34v2.79a4.17,4.17,0,0,0-1.53-.29c-.77,0-1.21.4-1.21,1.29v.46H155v2.75h-2.68v9H149v-9Z" transform="translate(-1.95 -9.26)"/><path class="cls-1" d="M165.6,181.47v-.05a3.16,3.16,0,0,0-3.13-3.28,3,3,0,0,0-3.08,3.24v0a3.15,3.15,0,0,0,3.12,3.28,3,3,0,0,0,3.09-3.23Zm-9.54,0v-.05a6.44,6.44,0,0,1,12.86,0v0a6.44,6.44,0,0,1-12.86.05Z" transform="translate(-1.95 -9.26)"/><path class="cls-1" d="M171.36,175.46h3.37v2.39a3.66,3.66,0,0,1,3.79-2.61v3.52h-.18c-2.24,0-3.61,1.35-3.61,4.19v4.39h-3.37V175.46Z" transform="translate(-1.95 -9.26)"/><path class="cls-1" d="M188.1,180.47a2.55,2.55,0,0,0-2.51-2.53c-1.4,0-2.3,1-2.57,2.53Zm-8.38,1v-.05a5.91,5.91,0,0,1,5.87-6.18c4,0,5.79,3.08,5.79,6.45,0,.27,0,.58,0,.89h-8.27A2.76,2.76,0,0,0,186,184.9a3.87,3.87,0,0,0,2.88-1.22l1.93,1.71a6.27,6.27,0,0,1-11.06-3.92Z" transform="translate(-1.95 -9.26)"/><polygon class="cls-1" points="202.42 171.96 196.46 162.56 200.45 162.56 204.15 168.79 207.92 162.56 211.8 162.56 205.83 171.9 205.83 178.08 202.42 178.08 202.42 171.96 202.42 171.96"/><path class="cls-1" d="M222,181.47v-.05a3.16,3.16,0,0,0-3.13-3.28,3,3,0,0,0-3.08,3.24v0A3.15,3.15,0,0,0,219,184.7a3,3,0,0,0,3.09-3.23Zm-9.54,0v-.05a6.44,6.44,0,0,1,12.86,0v0a6.44,6.44,0,0,1-12.86.05Z" transform="translate(-1.95 -9.26)"/><path class="cls-1" d="M227.71,183.15v-7.69h3.37v6.63c0,1.59.75,2.41,2,2.41s2.1-.82,2.1-2.41v-6.63h3.37v11.88h-3.37v-1.68a4.18,4.18,0,0,1-3.48,1.9c-2.54,0-4-1.68-4-4.41Z" transform="translate(-1.95 -9.26)"/><path class="cls-1" d="M255.55,184.35c1.51,0,2.42-.53,2.42-1.69v0c0-1-.78-1.68-2.53-1.68H251.5v3.41Zm-.91-6.25c1.51,0,2.46-.49,2.46-1.64v-.05c0-1-.79-1.59-2.24-1.59H251.5v3.28Zm-6.47-6.28h7.21a5.57,5.57,0,0,1,4.05,1.38,3.56,3.56,0,0,1,1.07,2.64v0a3.61,3.61,0,0,1-2,3.35c1.79.69,2.9,1.73,2.9,3.81v.05c0,2.83-2.31,4.25-5.81,4.25h-7.38V171.82Z" transform="translate(-1.95 -9.26)"/><path class="cls-1" d="M263.73,183.15v-7.69h3.37v6.63c0,1.59.76,2.41,2,2.41s2.11-.82,2.11-2.41v-6.63h3.37v11.88h-3.37v-1.68a4.21,4.21,0,0,1-3.48,1.9c-2.55,0-4-1.68-4-4.41Z" transform="translate(-1.95 -9.26)"/><path class="cls-1" d="M277.48,190.14l1.13-2.44a3.08,3.08,0,0,0,1.44.46,1.12,1.12,0,0,0,1.17-.77l-4.65-11.93h3.57l2.7,8.09,2.59-8.09h3.51l-4.57,12.17c-.91,2.42-1.88,3.33-3.9,3.33a5.55,5.55,0,0,1-3-.82Z" transform="translate(-1.95 -9.26)"/></g></g></svg>