<svg xmlns="http://www.w3.org/2000/svg" viewBox="0 0 46.93 40.28"><defs><style>.cls-1{fill:#4f596f;}</style></defs><title>asset_Asset 12</title><g id="Layer_2" data-name="Layer 2"><g id="Assets"><path class="cls-1" d="M.74.84a.46.46,0,0,0-.08.25L0,14.23a.49.49,0,0,0,.13.36L14.91,29.36a2.32,2.32,0,0,0,3.29,0L29.36,18.2a2.32,2.32,0,0,0,0-3.29L14.59.13A.49.49,0,0,0,14.23,0L1.09.66A.44.44,0,0,0,.74.84Zm.82.72L14.07.94,28.71,15.57a1.38,1.38,0,0,1,0,2L17.54,28.71a1.38,1.38,0,0,1-2,0L.94,14.07Zm3.5,3.5A2.79,2.79,0,1,0,9,5.06,2.8,2.8,0,0,0,5.06,5.06Zm.66.66a1.86,1.86,0,1,1,0,2.63A1.85,1.85,0,0,1,5.72,5.72Zm7.16,15.82a.47.47,0,0,0,.06.66.46.46,0,0,0,.66-.06l8.54-8.54a.47.47,0,0,0,0-.66.48.48,0,0,0-.66,0h0l-8.54,8.54,0,0Zm3.61,1.65a.46.46,0,0,0,.07.65.45.45,0,0,0,.65-.06l6.57-6.57a.45.45,0,0,0,0-.65.46.46,0,0,0-.66,0h0l-6.56,6.56,0,0Z"/></g></g></svg>