<svg xmlns="http://www.w3.org/2000/svg" viewBox="0 0 46.93 40.28"><defs><style>.cls-1{fill:#4f596f;}.cls-2{fill:none;stroke:#4f596f;stroke-miterlimit:10;stroke-width:0.86px;}</style></defs><title>asset_species(new)</title><g id="Layer_2" data-name="Layer 2"><g id="Assets"><path class="cls-1" d="M14.65.86a3.31,3.31,0,1,1-3.3,3.31A3.31,3.31,0,0,1,14.65.86m0-.86a4.17,4.17,0,1,0,4.17,4.17A4.17,4.17,0,0,0,14.65,0Z"/><path class="cls-1" d="M14.65,22.52a3.31,3.31,0,1,1-3.3,3.31,3.31,3.31,0,0,1,3.3-3.31m0-.86a4.17,4.17,0,1,0,4.17,4.17,4.17,4.17,0,0,0-4.17-4.17Z"/><path class="cls-1" d="M4.17,22.52A3.31,3.31,0,1,1,.86,25.83a3.32,3.32,0,0,1,3.31-3.31m0-.86a4.17,4.17,0,1,0,4.17,4.17,4.17,4.17,0,0,0-4.17-4.17Z"/><path class="cls-1" d="M25.14,22.52a3.31,3.31,0,1,1-3.31,3.31,3.32,3.32,0,0,1,3.31-3.31m0-.86a4.17,4.17,0,1,0,4.17,4.17,4.17,4.17,0,0,0-4.17-4.17Z"/><polyline class="cls-2" points="4.17 21.7 4.17 16.65 25.14 16.65 25.14 21.9"/><line class="cls-2" x1="14.65" y1="7.48" x2="14.65" y2="21.7"/></g></g></svg>