<svg xmlns="http://www.w3.org/2000/svg" viewBox="0 0 46.93 40.28"><defs><style>.cls-1{fill:#4f596f;}.cls-2{fill:none;stroke:#4f596f;stroke-linecap:round;stroke-miterlimit:10;stroke-width:0.84px;}</style></defs><title>asset_Asset 7</title><g id="Layer_2" data-name="Layer 2"><g id="Assets"><path class="cls-1" d="M15,.86a14.1,14.1,0,0,1,8.93,3.19l0,0,.05,0,0,0a14.21,14.21,0,0,1,5.07,9.75c0,.42.05.78.05,1.12a16,16,0,0,1-.1,1.7A14.12,14.12,0,0,1,15,29.14a14.82,14.82,0,0,1-1.73-.1h-.05A14.13,14.13,0,0,1,6.87,3.44l0,0h0l0,0A14,14,0,0,1,15,.86M15,0A14.88,14.88,0,0,0,6.44,2.69l0,0h0l0,0a15,15,0,0,0,6.79,27.13h.09A15.53,15.53,0,0,0,15,30,15,15,0,0,0,29.89,16.8,15.39,15.39,0,0,0,30,15c0-.36,0-.74,0-1.18v-.05a15,15,0,0,0-5.37-10.3l0,0h0A15,15,0,0,0,15,0Zm0,30Zm0,0Z"/><path class="cls-2" d="M29.43,13.5l-.3-.43A.36.36,0,0,0,28.9,13l-.65,0-.56-.49a.38.38,0,0,0-.52,0l0,0-.3.46-.53.37-.12-.72a.37.37,0,0,0-.17-.25l-.55-.34a.39.39,0,0,0-.35,0l-1.43.67a.36.36,0,0,0-.18.49.41.41,0,0,0,.07.11l.94.94-.23.68-.45-.07a.36.36,0,0,0-.41.25l-.13.4-.44.14L22,13.5a.34.34,0,0,0-.13-.16l-.58-.4-.12-.8a.38.38,0,0,0-.34-.31L20,11.78l-.7-.7A.36.36,0,0,0,19,11l-1.62.58a.36.36,0,0,0-.23.2l-.48,1.06-.58.07,0-.89.26-.87a.38.38,0,0,0-.09-.35l-.55-.6.73-.73a.37.37,0,0,0,0-.52.41.41,0,0,0-.11-.07l-.55-.24V8.18l1.58-1a.39.39,0,0,0,.15-.23L17.72,6a.37.37,0,0,0-.28-.44.25.25,0,0,0-.17,0l-1,.25,1-1.3,1-.16a.31.31,0,0,0,.18-.09l.45-.4.22,0,.1,1a.36.36,0,0,0,.36.33h1.65a.37.37,0,0,0,.3-.14L22.48,4l.57.41a.34.34,0,0,0,.26.06l1.12.07"/><path class="cls-2" d="M6.45,3.51l2,1a.34.34,0,0,0,.24,0l1.89-.31.23.68a2.31,2.31,0,0,1-.4.74H9a.37.37,0,0,0-.3.16l-.73,1.1a.36.36,0,0,0,.3.57H9.79l.22.66L8.78,9.69H7.44a.38.38,0,0,0-.29.15l-.65.84H5.13a.38.38,0,0,0-.37.31l-.23,1.46L3.31,13.93a.36.36,0,0,0-.08.3c0,.31.12.68.14.86-.14.18-.35.47-.7,1L2,15.39a.37.37,0,0,0-.52,0,.35.35,0,0,0-.1.21l-.21,1.88a.36.36,0,0,0,.06.25l.7,1,.33,1.11a.42.42,0,0,0,.11.18l.74.64a.38.38,0,0,0,.31.08l1.68-.34L6,21.63l.51,1.08a.36.36,0,0,0,.33.21H8.2a.33.33,0,0,0,.17,0l.81-.43.9.79.7,2.39-.24,1.52a.42.42,0,0,0,0,.16c.33,1.13.43,1.38.66,1.43"/><path class="cls-2" d="M23.26,24.36c-.05,0-.07-.05-.06-.08L23.66,23l0,0s.39-.35.47-.45a.05.05,0,0,1,.05,0l.61.17a.06.06,0,0,1,.05.06v.55a.08.08,0,0,1,0,0l-.91,1-.05,0Z"/><path class="cls-2" d="M12.87,7.46s0,0,0,0l-.59-.64s0,0,0,0l.23-1.59V3.6L12,3a.07.07,0,0,1,0-.1L13,2.51h0l.41.06L14.61,2h0s0,0,0,0L16.2,3a.05.05,0,0,1,0,.07l-.55,1.29,0,0L14,4.85,14.18,6a.06.06,0,0,1,0,.07l-.68.33-.55,1s0,0,0,0Z"/><path class="cls-2" d="M17.69,3.18h0l-.54-.43a.05.05,0,0,1,0-.05V2A.06.06,0,0,1,17.13,2l.58-.15h0l.58.15s.06.07,0,.09l-.61,1.1-.05,0Z"/><path class="cls-2" d="M22.15,19.21a.22.22,0,0,0,0,.08v3L21,22.84a.39.39,0,0,0-.2.28l-.12.86a.34.34,0,0,0,0,.22l.23.44-.76,1.08c-.31.06-.64.12-.86.14-.07-.22-.21-.59-.46-1.23L17.5,21.89l-.45-2a.39.39,0,0,0-.32-.28c-.42-.05-1.41-.15-1.52-.15h0l-1.28-.24-.53-.93.58-.75a.38.38,0,0,0,0-.4l-.23-.42v-.69l1.27-.73,1.22-.39a.11.11,0,0,0,.07,0l1-.56.81-.51.29.2a.39.39,0,0,0,.15.06l1,.14.85.6,1.09,2.32,0,.05.77,1.15Z"/></g></g></svg>